<?xml version="1.0" standalone="no"?>
<!DOCTYPE svg PUBLIC "-//W3C//DTD SVG 20010904//EN"
 "http://www.w3.org/TR/2001/REC-SVG-20010904/DTD/svg10.dtd">
<svg version="1.0" xmlns="http://www.w3.org/2000/svg"
 width="920.000000pt" height="512.000000pt" viewBox="0 0 920.000000 512.000000"
 preserveAspectRatio="xMidYMid meet">

<g transform="translate(0.000000,512.000000) scale(0.100000,-0.100000)"
fill="#000000" stroke="none">
<path d="M2125 4948 c-45 -26 -85 -93 -85 -143 1 -43 34 -110 65 -131 14 -9
182 -79 373 -154 l347 -136 137 -745 c75 -409 158 -859 183 -999 179 -971 163
-909 235 -958 26 -17 47 -22 96 -22 35 0 64 -2 64 -4 0 -2 -43 -124 -96 -271
-101 -285 -104 -298 -63 -356 29 -41 78 -59 159 -59 l72 0 -16 -23 c-9 -12
-33 -55 -53 -95 -68 -139 -67 -286 3 -430 33 -68 117 -158 186 -200 272 -163
618 -30 724 280 44 126 12 313 -72 425 -13 17 -24 34 -24 37 0 3 239 6 530 6
l530 0 -34 -50 c-132 -192 -108 -456 58 -621 192 -193 493 -197 686 -8 102
100 150 213 150 353 0 111 -32 207 -97 294 l-24 32 88 0 c64 0 97 5 122 18 96
48 105 172 18 236 -28 21 -31 21 -1363 24 -1262 2 -1335 3 -1329 20 3 9 36
100 73 202 l67 185 1265 5 c1166 5 1267 6 1296 22 17 9 39 29 49 44 10 15 69
188 132 383 484 1509 575 1797 580 1827 11 69 -45 158 -112 177 -11 4 -123 11
-250 16 -126 6 -279 13 -340 16 -60 3 -321 14 -580 25 -664 28 -1344 58 -1735
75 -358 16 -380 15 -428 -29 -41 -37 -55 -74 -50 -138 4 -47 10 -64 34 -89 60
-64 -33 -55 1119 -104 1754 -75 1947 -84 1951 -88 2 -2 -126 -408 -284 -903
l-288 -899 -1296 -3 -1296 -2 -6 27 c-3 16 -28 150 -55 298 -27 149 -104 565
-170 925 -66 360 -147 802 -180 982 -33 180 -67 341 -76 357 -8 17 -30 41 -47
54 -47 35 -803 329 -858 334 -34 3 -55 -2 -85 -19z m1938 -4101 c84 -36 137
-114 137 -202 0 -213 -277 -296 -398 -118 -31 45 -41 131 -22 188 16 49 66
104 115 126 48 22 123 24 168 6z m1828 -15 c100 -52 143 -169 100 -268 -41
-91 -104 -133 -200 -134 -105 0 -186 65 -211 170 -31 129 75 259 211 260 32 0
64 -9 100 -28z"/>
</g>
</svg>
